<?xml version="1.0" ?><svg id="Layer_1" style="enable-background:new 0 0 606.2 415.1;" version="1.1" viewBox="0 0 606.2 415.1" xml:space="preserve" xmlns="http://www.w3.org/2000/svg" xmlns:xlink="http://www.w3.org/1999/xlink"><style type="text/css">
	.st0{clip-path:url(#SVGID_2_);fill:#F89938;}
	.st1{clip-path:url(#SVGID_2_);fill:none;}
	.st2{clip-path:url(#SVGID_2_);fill:#FFFFFF;}
	.st3{clip-path:url(#SVGID_2_);fill:#1C8943;}
	.st4{clip-path:url(#SVGID_2_);}
	.st5{fill:#2C479E;}
	.st6{fill:#FFFFFF;}
</style><g><defs><path d="M36,66.9C36,47.1,53.3,31,74.4,31h463.5c21.2,0,38.4,16.2,38.4,35.8v288.3c0,19.8-17.4,35.8-38.4,35.8H74.4    C53.2,391,36,374.8,36,355.2V66.9z" id="SVGID_1_"/></defs><clipPath id="SVGID_2_"><use style="overflow:visible;" xlink:href="#SVGID_1_"/></clipPath><rect class="st0" height="120" width="540.4" x="36" y="31.1"/><rect class="st1" height="360" width="540.4" x="36" y="31.1"/><rect class="st2" height="120" width="540.4" x="36" y="151"/><rect class="st3" height="120" width="540.4" x="36" y="271"/><g class="st4"><circle class="st5" cx="306.2" cy="211.6" r="55.9"/><path class="st6" d="M343.5,244.1c-1.2-1.2-1.2-3.1,0-4.3c1.1-1.1,2.8-1.2,4-0.3c1.3-1.9,2.4-3.9,3.5-6c-0.1,0-0.2-0.1-0.3-0.1    c-1.5-0.8-2-2.7-1.1-4.2c0.8-1.3,2.4-1.9,3.8-1.3c0.7-2.1,1.3-4.3,1.8-6.6c-1.5-0.2-2.6-1.5-2.6-3c0-1.7,1.4-3.1,3.1-3.1    c0.1,0,0.2,0,0.4,0c0.1-1.2,0.1-2.4,0.1-3.6c0-1.1,0-2.2-0.1-3.3c-0.1,0-0.2,0-0.4,0c-1.7,0-3.1-1.4-3.1-3.1c0-1.6,1.2-2.8,2.7-3    c-0.4-2.3-1-4.5-1.8-6.7c-0.1,0.1-0.3,0.1-0.4,0.1c-1.6,0.4-3.3-0.5-3.8-2.2c-0.4-1.5,0.4-3.1,1.8-3.6c-1-2.1-2.2-4.1-3.4-6    c-1.2,1-3,0.9-4.1-0.2c-1.2-1.2-1.2-3.1,0-4.3c0.1-0.1,0.2-0.2,0.3-0.3c-1.5-1.7-3.1-3.4-4.9-4.9c-0.1,0.1-0.2,0.2-0.3,0.4    c-1.2,1.2-3.1,1.2-4.3,0c-1.1-1.1-1.2-2.9-0.2-4.1c-1.9-1.3-3.9-2.5-6-3.5c-0.1,0.2-0.1,0.3-0.2,0.5c-0.8,1.5-2.7,2-4.2,1.1    c-1.4-0.8-1.9-2.5-1.3-3.9c-2.2-0.7-4.4-1.3-6.7-1.8c-0.1,1.6-1.4,2.8-3.1,2.8c-1.7,0-3.1-1.4-3.1-3.1c0-0.2,0-0.4,0-0.5    c-1.2-0.1-2.3-0.1-3.5-0.1c-1.2,0-2.3,0-3.4,0.1c0,0.2,0.1,0.4,0.1,0.5c0,1.7-1.4,3.1-3.1,3.1c-1.6,0-2.9-1.2-3.1-2.8    c-2.3,0.4-4.6,1.1-6.8,1.8c0.1,0.2,0.1,0.3,0.2,0.5c0.4,1.6-0.5,3.3-2.2,3.8c-1.6,0.4-3.1-0.4-3.7-1.9c-2.1,1-4,2.2-5.9,3.4    c1,1.2,1,3-0.2,4.1c-1.2,1.2-3.1,1.2-4.3,0c-0.1-0.1-0.2-0.3-0.3-0.4c-1.7,1.5-3.4,3.2-4.9,4.9c0.1,0.1,0.3,0.2,0.4,0.3    c1.2,1.2,1.2,3.1,0,4.3c-1.1,1.1-2.9,1.2-4.1,0.2c-1.3,1.9-2.5,3.9-3.5,6c0.2,0.1,0.3,0.1,0.5,0.2c1.5,0.8,2,2.7,1.1,4.2    c-0.8,1.4-2.5,1.9-3.9,1.3c-0.7,2.2-1.3,4.4-1.8,6.6c1.5,0.2,2.8,1.5,2.8,3c0,1.7-1.4,3.1-3.1,3.1c-0.2,0-0.3,0-0.5,0    c-0.1,1.1-0.1,2.2-0.1,3.3c0,1.2,0,2.4,0.1,3.6c0.1,0,0.3,0,0.5,0c1.7,0,3.1,1.4,3.1,3.1c0,1.6-1.2,2.9-2.7,3    c0.5,2.3,1.1,4.5,1.8,6.7c0.1-0.1,0.3-0.1,0.4-0.1c1.6-0.4,3.3,0.5,3.8,2.2c0.4,1.5-0.4,3.1-1.8,3.6c1,2.1,2.2,4,3.5,5.9    c1.2-0.9,2.9-0.8,4,0.3c1.2,1.2,1.2,3.1,0,4.3c-0.1,0.1-0.2,0.2-0.3,0.2c1.5,1.7,3.1,3.4,4.9,4.9c0.1-0.1,0.2-0.2,0.2-0.3    c1.2-1.2,3.1-1.2,4.3,0c1.1,1.1,1.2,2.8,0.3,4c1.9,1.3,3.9,2.4,6,3.4c0-0.1,0.1-0.2,0.2-0.3c0.8-1.5,2.7-2,4.2-1.1    c1.3,0.8,1.9,2.4,1.3,3.8c2.1,0.7,4.4,1.3,6.6,1.8c0.2-1.5,1.5-2.6,3-2.6c1.7,0,3.1,1.4,3.1,3.1c0,0.1,0,0.2,0,0.3    c1.1,0.1,2.3,0.1,3.4,0.1c1.2,0,2.3,0,3.5-0.1c0-0.1,0-0.2,0-0.3c0-1.7,1.4-3.1,3.1-3.1c1.5,0,2.8,1.1,3,2.6    c2.3-0.4,4.5-1,6.7-1.8c0-0.1-0.1-0.2-0.1-0.3c-0.4-1.6,0.5-3.3,2.2-3.8c1.5-0.4,3,0.3,3.6,1.7c2-1,4-2.1,5.9-3.4    c-0.9-1.2-0.7-2.9,0.3-3.9c1.2-1.2,3.1-1.2,4.3,0c0.1,0.1,0.1,0.1,0.2,0.2c1.7-1.5,3.4-3.1,4.9-4.9    C343.6,244.2,343.5,244.2,343.5,244.1z"/><g><g><g><g><path class="st5" d="M306.2,161.8l-2,28.6c0,0,2,10.5,2,21.1c0-10.7,1.9-21.1,1.9-21.1L306.2,161.8z"/><path class="st5" d="M306.2,261.3l-2-28.6c0,0,2-10.5,2-21.1c0,10.7,1.9,21.1,1.9,21.1L306.2,261.3z"/></g><g><path class="st5" d="M355.9,211.6l-28.6-2c0,0-10.5,2-21.1,2c10.7,0,21.1,1.9,21.1,1.9L355.9,211.6z"/><path class="st5" d="M256.4,211.6l28.6-2c0,0,10.5,2,21.1,2c-10.7,0-21.1,1.9-21.1,1.9L256.4,211.6z"/></g></g><g><g><path class="st5" d="M341.4,176.4l-21.6,18.8c0,0-6,8.8-13.6,16.3c7.5-7.5,16.3-13.6,16.3-13.6L341.4,176.4z"/><path class="st5" d="M271,246.8l18.8-21.6c0,0,8.8-6,16.3-13.6c-7.5,7.5-13.6,16.3-13.6,16.3L271,246.8z"/></g><g><path class="st5" d="M341.3,246.8l-18.8-21.6c0,0-8.8-6-16.3-13.6c7.5,7.5,13.6,16.3,13.6,16.3L341.3,246.8z"/><path class="st5" d="M270.9,176.4l21.6,18.8c0,0,6,8.8,13.6,16.3c-7.5-7.5-16.3-13.6-16.3-13.6L270.9,176.4z"/></g></g></g><g><g><g><path class="st5" d="M319.3,163.6l-9.4,27.1c0,0-0.9,10.6-3.7,20.9c2.8-10.3,7.4-19.9,7.4-19.9L319.3,163.6z"/><path class="st5" d="M293.1,259.6l5.6-28.1c0,0,4.7-9.6,7.5-19.9c-2.8,10.3-3.7,20.9-3.7,20.9L293.1,259.6z"/></g><g><path class="st5" d="M354.2,224.7l-27.1-9.4c0,0-10.6-0.9-20.9-3.7c10.3,2.8,19.9,7.4,19.9,7.4L354.2,224.7z"/><path class="st5" d="M258.1,198.5l28.1,5.6c0,0,9.6,4.7,19.9,7.5c-10.3-2.8-20.9-3.7-20.9-3.7L258.1,198.5z"/></g></g><g><g><path class="st5" d="M349.4,186.9l-25.8,12.5c0,0-8.1,6.9-17.4,12.2c9.3-5.3,19.3-8.8,19.3-8.8L349.4,186.9z"/><path class="st5" d="M263,236.3l23.9-15.9c0,0,10.1-3.5,19.3-8.8c-9.3,5.3-17.4,12.1-17.4,12.1L263,236.3z"/></g><g><path class="st5" d="M330.8,254.8L318.3,229c0,0-6.9-8.1-12.2-17.4c5.3,9.3,8.8,19.3,8.8,19.3L330.8,254.8z"/><path class="st5" d="M281.4,168.4l15.9,23.9c0,0,3.5,10.1,8.8,19.3c-5.3-9.3-12.1-17.4-12.1-17.4L281.4,168.4z"/></g></g></g><g><g><g><path class="st5" d="M331.1,168.5l-16,23.8c0,0-3.5,10.1-8.9,19.3c5.3-9.2,12.2-17.4,12.2-17.4L331.1,168.5z"/><path class="st5" d="M281.3,254.7l12.6-25.7c0,0,6.9-8.1,12.3-17.3c-5.3,9.2-8.9,19.2-8.9,19.2L281.3,254.7z"/></g><g><path class="st5" d="M349.2,236.5l-23.8-16c0,0-10.1-3.5-19.3-8.9c9.2,5.3,17.4,12.2,17.4,12.2L349.2,236.5z"/><path class="st5" d="M263.1,186.7l25.7,12.6c0,0,8.1,6.9,17.3,12.3c-9.2-5.3-19.2-8.9-19.2-8.9L263.1,186.7z"/></g></g><g><g><path class="st5" d="M354.2,198.8l-28.1,5.5c0,0-9.6,4.6-19.9,7.4c10.3-2.8,20.9-3.6,20.9-3.6L354.2,198.8z"/><path class="st5" d="M258.1,224.5l27.1-9.3c0,0,10.6-0.8,20.9-3.6c-10.3,2.8-19.9,7.3-19.9,7.3L258.1,224.5z"/></g><g><path class="st5" d="M319,259.7l-5.5-28.1c0,0-4.6-9.6-7.4-19.9c2.8,10.3,3.6,20.9,3.6,20.9L319,259.7z"/><path class="st5" d="M293.3,163.5l9.3,27.1c0,0,0.8,10.6,3.6,20.9c-2.8-10.3-7.3-19.9-7.3-19.9L293.3,163.5z"/></g></g></g></g></g></g></svg>